<?xml version="1.0" standalone="no"?>
<!DOCTYPE svg PUBLIC "-//W3C//DTD SVG 20010904//EN"
 "http://www.w3.org/TR/2001/REC-SVG-20010904/DTD/svg10.dtd">
<svg version="1.0" xmlns="http://www.w3.org/2000/svg"
 width="512.000000pt" height="512.000000pt" viewBox="0 0 512.000000 512.000000"
 preserveAspectRatio="xMidYMid meet">
<metadata>
Created by potrace 1.14, written by Peter Selinger 2001-2017
</metadata>
<g transform="translate(0.000000,512.000000) scale(0.100000,-0.100000)"
fill="#000000" stroke="none">
<path d="M2170 3889 c-132 -8 -272 -43 -364 -92 -78 -41 -195 -152 -254 -241
-48 -71 -122 -234 -168 -370 -14 -41 -38 -84 -59 -107 -20 -22 -43 -56 -53
-75 -11 -24 -25 -37 -44 -41 -41 -8 -49 -25 -46 -95 3 -54 6 -64 26 -73 14 -6
22 -18 22 -36 0 -29 27 -115 46 -144 8 -11 17 -80 23 -160 10 -145 39 -312 67
-399 47 -139 153 -255 281 -305 92 -37 195 -119 261 -208 l39 -53 -26 -52
c-22 -45 -26 -66 -26 -143 0 -110 6 -131 50 -189 54 -71 51 -107 -29 -376 -63
-212 -138 -496 -150 -567 -3 -18 -2 -34 3 -37 20 -13 240 -67 344 -85 557 -97
1112 -13 1617 244 147 75 140 49 74 263 -70 226 -230 571 -318 689 -26 34 -85
97 -131 140 l-83 79 10 39 c14 51 -6 93 -87 188 -57 67 -57 67 -50 117 14 105
-36 151 -171 158 l-83 4 20 39 20 39 28 -21 c93 -69 207 -28 265 96 50 105 61
289 22 364 -18 33 -18 40 0 185 14 108 19 217 19 381 0 216 -1 235 -24 303
-39 119 -152 276 -256 357 -183 142 -459 205 -815 184z m-280 -460 c140 -41
328 -50 500 -24 63 10 138 21 165 25 108 16 257 -30 317 -99 17 -19 42 -59 56
-89 21 -47 25 -70 26 -171 1 -111 0 -116 -20 -119 -17 -2 -28 9 -51 50 -39 68
-109 133 -181 166 -50 23 -70 27 -162 27 -97 0 -110 -2 -170 -31 -74 -35 -129
-80 -160 -129 l-21 -34 -35 21 c-27 16 -46 19 -81 15 -39 -4 -49 -2 -64 17 -9
11 -21 18 -25 13 -4 -4 -2 -13 4 -19 14 -14 16 -38 4 -38 -5 0 -22 20 -40 44
-99 142 -322 198 -486 123 l-58 -27 7 28 c3 15 20 59 36 98 73 175 205 222
439 153z m-135 -266 c125 -44 234 -170 235 -274 0 -49 -45 -134 -89 -166 -20
-15 -42 -34 -48 -42 -20 -23 -16 -85 7 -114 11 -14 20 -27 20 -30 0 -3 -23
-19 -51 -37 -64 -39 -130 -56 -216 -55 -84 1 -176 41 -240 103 -41 40 -43 44
-43 104 -1 38 -6 70 -15 82 -13 17 -14 15 -17 -20 l-3 -39 -14 45 c-20 66 -10
174 22 243 14 31 29 57 32 57 3 0 3 -4 0 -10 -3 -5 -2 -10 4 -10 14 0 41 41
41 63 0 22 39 59 88 83 87 42 196 49 287 17z m947 -31 c79 -39 130 -92 171
-180 27 -57 31 -77 31 -147 -1 -104 -28 -176 -95 -250 -91 -99 -219 -141 -300
-100 -33 17 -33 17 -19 0 14 -17 13 -18 -22 -11 -20 4 -50 13 -65 21 -15 8
-34 15 -41 15 -8 0 -27 9 -43 21 l-29 21 20 25 c27 35 26 87 -2 107 -12 8 -25
13 -30 10 -5 -4 0 -13 11 -21 27 -18 27 -55 0 -79 -20 -18 -21 -18 -50 16 -76
91 -97 254 -47 362 49 107 106 162 207 205 47 20 70 23 146 21 79 -3 99 -7
157 -36z m-566 -147 c22 -22 24 -30 17 -58 -4 -18 -8 -77 -8 -132 0 -88 3
-107 28 -159 32 -70 32 -66 8 -66 -11 0 -40 -9 -66 -20 -118 -51 -255 -2 -255
90 0 10 23 38 52 61 61 51 95 118 110 216 6 38 18 73 26 81 25 19 61 14 88
-13z m804 -331 c-7 -78 -10 -158 -7 -179 8 -48 34 -77 66 -73 21 2 27 10 32
40 7 46 22 64 63 78 135 44 195 -194 100 -396 -29 -62 -62 -94 -106 -103 -54
-11 -84 -2 -130 38 -47 42 -68 44 -60 6 3 -16 0 -25 -8 -25 -9 0 -11 11 -7 35
4 26 -1 50 -19 88 l-25 52 6 -50 c6 -47 5 -49 -10 -30 -15 18 -15 17 -8 -15 6
-32 5 -34 -11 -21 -15 13 -16 12 -7 -13 25 -64 63 -118 46 -65 -5 15 -4 19 4
15 18 -12 10 -76 -9 -76 -5 0 -16 21 -25 48 -9 26 -24 63 -35 82 l-19 35 -1
-34 c0 -28 -2 -32 -15 -21 -11 10 -10 0 5 -46 11 -31 19 -59 17 -61 -2 -1 -16
18 -31 45 -35 61 -22 14 16 -58 18 -35 27 -45 23 -27 -3 15 -3 27 -1 27 3 0
12 -12 21 -27 15 -28 15 -28 10 20 -3 26 -3 47 0 47 14 0 28 -51 26 -95 -2
-56 17 -121 50 -167 21 -29 21 -31 5 -65 -9 -19 -40 -60 -69 -90 -54 -58 -225
-201 -265 -222 -57 -30 -194 -44 -422 -42 l-66 1 -28 66 c-81 186 -246 356
-391 404 -41 14 -65 27 -65 36 0 9 -5 12 -10 9 -6 -4 -26 9 -46 27 l-34 34 25
77 c31 95 31 100 -1 62 l-25 -30 6 40 c5 36 4 37 -6 15 -6 -14 -12 -51 -13
-82 0 -32 -4 -58 -7 -58 -9 0 -39 69 -38 88 1 11 4 8 8 -8 7 -21 9 -18 15 25
4 28 10 58 13 69 3 11 1 16 -5 12 -6 -3 -12 2 -14 11 -5 21 -28 -49 -28 -87
-1 -23 -1 -24 -12 -6 -8 15 -7 30 5 65 24 69 30 97 22 88 -5 -4 -17 0 -26 9
-17 16 -19 15 -25 -1 -4 -10 -2 -31 3 -46 6 -16 8 -31 3 -34 -4 -2 -11 10 -15
28 -9 39 -9 35 -1 70 4 19 3 26 -4 22 -5 -3 -10 2 -10 14 0 10 -4 21 -9 23
-12 4 -31 149 -31 230 l0 58 61 -45 c39 -28 88 -53 133 -67 39 -12 76 -27 83
-34 13 -13 125 -13 156 1 9 4 26 5 38 2 11 -3 33 -2 49 3 17 5 32 5 35 0 3 -5
12 -7 20 -3 10 3 15 -1 15 -13 1 -16 5 -15 25 9 24 27 25 28 25 5 0 -20 2 -20
30 12 35 42 36 50 10 57 -32 8 -24 33 10 33 17 0 62 11 101 25 77 27 83 26
147 -22 17 -13 32 -31 32 -39 0 -12 -5 -11 -26 5 -21 16 -30 18 -40 10 -10 -8
-14 -8 -14 0 0 6 -13 9 -32 7 -22 -3 -36 2 -45 13 -11 14 -12 13 -13 -9 -1
-24 -1 -24 -15 -6 -13 17 -15 18 -15 3 0 -9 -4 -17 -10 -17 -5 0 -10 -9 -10
-21 0 -13 -4 -18 -12 -13 -7 4 -8 3 -4 -5 4 -6 12 -9 17 -6 5 4 20 -6 34 -21
l25 -27 0 24 c0 24 0 24 26 -6 24 -29 25 -29 18 -5 l-7 25 23 -20 23 -20 -7
35 -6 34 28 -27 c15 -15 33 -27 40 -27 7 0 12 -4 12 -8 0 -5 -42 -19 -92 -32
-123 -31 -304 -38 -407 -16 -77 16 -97 15 -64 -2 46 -25 188 -45 274 -39 132
10 319 55 319 78 0 5 7 9 16 9 11 0 14 6 8 23 -6 21 -6 21 12 6 28 -24 48 -28
86 -20 23 6 46 4 67 -5 18 -8 31 -9 31 -3 0 6 7 6 20 -1 15 -8 20 -8 20 1 0 6
7 9 15 5 18 -7 54 5 54 19 1 6 5 10 9 10 19 0 147 83 172 112 63 71 108 182
111 273 1 22 3 28 6 15 3 -11 0 -84 -7 -161z m-991 -148 c15 -8 20 -16 12 -20
-6 -4 -11 -2 -11 5 0 8 -6 6 -18 -4 -35 -32 -72 -11 -40 21 15 15 27 15 57 -2z
m871 -1538 c0 -51 3 -117 6 -145 5 -35 3 -53 -4 -53 -14 0 -20 34 -27 173 -6
103 -5 117 9 117 14 0 16 -14 16 -92z m-708 -85 c5 -96 -2 -137 -18 -120 -10
9 -18 202 -10 223 13 35 24 -3 28 -103z m720 -155 c-9 -9 -15 -9 -24 0 -9 9
-7 12 12 12 19 0 21 -3 12 -12z m-712 -2 c0 -3 -4 -8 -10 -11 -5 -3 -10 -1
-10 4 0 6 5 11 10 11 6 0 10 -2 10 -4z m738 -58 c2 -19 -2 -28 -17 -33 -29 -9
-41 1 -41 36 0 27 3 30 28 27 21 -2 28 -9 30 -30z m-734 6 c10 -26 7 -34 -14
-34 -15 0 -20 7 -20 25 0 28 24 34 34 9z"/>
<path d="M1303 2805 c-3 -9 -3 -18 0 -22 10 -10 37 6 37 22 0 20 -29 20 -37 0z"/>
<path d="M1515 2740 c-12 -4 -27 -15 -34 -24 -11 -14 -11 -16 2 -16 9 0 19 5
22 10 9 15 43 12 70 -6 22 -14 25 -14 25 -1 0 29 -50 51 -85 37z"/>
<path d="M2608 2725 c-31 -17 -39 -42 -10 -30 37 17 78 17 91 1 8 -9 20 -16
27 -16 37 0 -7 47 -52 55 -17 3 -41 -1 -56 -10z"/>
<path d="M3072 2368 c-20 -20 -14 -91 13 -142 l25 -48 -22 -28 c-27 -33 -44
-37 -70 -13 -10 9 -21 14 -24 10 -11 -11 17 -47 43 -53 21 -6 32 0 63 32 20
21 45 44 56 50 18 11 18 13 -8 23 -48 18 -85 124 -53 151 18 15 31 6 37 -24 4
-26 28 -33 28 -9 0 48 -58 81 -88 51z"/>
<path d="M2907 2283 c-3 -15 -1 -33 5 -40 5 -7 8 -20 6 -30 -3 -14 -8 -11 -21
15 -10 17 -22 32 -28 32 -6 0 -6 -6 1 -19 7 -14 7 -20 -2 -23 -7 -3 -2 -20 15
-49 15 -24 27 -38 27 -31 0 6 6 12 14 12 12 0 14 14 11 71 -4 77 -19 110 -28
62z"/>
<path d="M1890 2265 c0 -3 12 -10 26 -16 29 -10 68 -3 59 12 -6 9 -85 13 -85
4z"/>
<path d="M1962 2146 c-9 -21 -8 -25 9 -29 12 -3 22 0 26 9 4 11 9 12 19 3 9
-7 14 -7 14 -1 0 8 -42 42 -53 42 -2 0 -9 -11 -15 -24z"/>
<path d="M2040 2153 c0 -4 5 -15 10 -23 8 -13 10 -13 10 2 0 9 -4 20 -10 23
-5 3 -10 3 -10 -2z"/>
<path d="M2080 2140 c0 -11 4 -20 9 -20 5 0 7 9 4 20 -3 11 -7 20 -9 20 -2 0
-4 -9 -4 -20z"/>
<path d="M2626 2048 c7 -64 0 -74 -19 -29 -9 21 -17 27 -26 22 -10 -7 -2 -30
34 -102 26 -52 53 -100 60 -108 14 -14 9 14 -22 137 -9 36 5 25 32 -25 37 -70
19 -12 -26 82 l-38 80 5 -57z"/>
<path d="M2680 2036 c18 -48 71 -148 76 -143 6 5 -73 167 -81 167 -2 0 0 -11
5 -24z"/>
<path d="M1551 1955 c-21 -69 -22 -95 -1 -95 4 0 11 11 14 25 4 14 12 24 18
22 17 -3 31 105 15 115 -20 13 -22 10 -46 -67z"/>
<path d="M2481 1989 c-1 -8 8 -57 19 -109 11 -51 18 -95 16 -98 -7 -6 -38 57
-57 118 -10 30 -18 47 -18 36 -1 -24 50 -188 57 -182 5 6 36 -31 45 -54 3 -8
6 -1 6 15 0 32 -66 300 -68 274z"/>
<path d="M2516 1975 c13 -58 55 -184 63 -189 11 -7 -41 172 -57 199 -11 18
-11 16 -6 -10z"/>
<path d="M1621 1933 c-17 -31 -31 -66 -30 -77 0 -13 9 -2 25 32 13 28 26 52
30 52 3 0 3 -19 0 -42 l-5 -43 14 40 c32 94 10 119 -34 38z"/>
<path d="M2540 1987 c0 -13 73 -168 77 -163 5 5 -45 124 -63 151 -8 11 -14 16
-14 12z"/>
<path d="M1690 1914 c-22 -73 -27 -110 -10 -84 7 12 10 8 10 -15 l1 -30 10 25
c6 14 16 51 24 83 12 51 12 57 -1 46 -13 -11 -14 -9 -9 14 14 55 -5 25 -25
-39z"/>
<path d="M2051 1930 c-6 -28 -11 -58 -11 -66 0 -9 -6 -14 -12 -12 -7 3 -16 27
-19 54 l-6 49 -1 -42 c-2 -50 -22 -59 -23 -10 0 27 -2 29 -9 12 -5 -11 -9 -15
-9 -10 -1 6 -6 3 -11 -5 -8 -13 -11 -13 -19 -1 -6 9 -13 -1 -26 -38 -9 -28
-15 -56 -13 -63 3 -7 10 9 17 35 16 56 33 52 26 -6 l-6 -42 15 30 14 30 3 -45
c2 -42 3 -42 6 -10 8 65 23 57 23 -13 0 -38 4 -67 10 -67 6 0 10 27 10 61 0
44 3 60 13 56 8 -2 11 -22 10 -58 -2 -41 0 -48 6 -29 5 14 9 37 10 53 1 17 7
27 16 27 11 0 15 -11 15 -42 0 -70 17 -80 25 -14 8 63 22 68 41 15 l12 -34 1
52 c1 86 29 77 33 -10 1 -25 4 -12 7 33 5 54 3 79 -6 88 -11 11 -13 11 -13 -2
0 -26 -20 -28 -29 -4 l-10 23 0 -23 c-1 -35 -21 -16 -22 21 -1 19 -3 24 -6 12
-14 -69 -14 -69 -24 -54 -5 7 -9 31 -9 51 0 56 -17 55 -29 -2z m29 -66 c0 -8
-4 -14 -10 -14 -5 0 -10 9 -10 21 0 11 5 17 10 14 6 -3 10 -13 10 -21z"/>
<path d="M2385 1930 c9 -71 27 -120 47 -131 18 -10 19 -7 13 38 -10 70 -25
113 -40 113 -7 0 -16 6 -19 13 -3 6 -4 -8 -1 -33z"/>
<path d="M2324 1937 c4 -16 2 -27 -4 -27 -16 0 -12 -22 17 -112 19 -60 28 -76
31 -59 3 19 6 21 13 10 14 -23 11 37 -7 111 -8 37 -24 73 -36 84 l-21 20 7
-27z"/>
<path d="M1751 1909 c-6 -18 -11 -39 -10 -48 1 -9 7 4 15 28 16 51 12 68 -5
20z"/>
<path d="M2250 1915 c0 -12 3 -51 7 -85 5 -55 8 -60 16 -39 9 22 11 21 23 -26
l13 -50 -4 60 c-7 93 -24 162 -40 162 -9 0 -15 -10 -15 -22z"/>
<path d="M1820 1904 c-6 -14 -14 -23 -19 -20 -11 7 -21 -28 -21 -76 0 -82 27
-39 49 76 9 51 6 59 -9 20z"/>
<path d="M1871 1888 c-5 -18 -12 -51 -15 -73 -4 -24 2 -12 14 30 19 71 21 104
1 43z"/>
<path d="M2225 1861 c3 -35 5 -77 5 -93 0 -18 4 -27 11 -23 7 5 8 30 3 74 -9
90 -26 126 -19 42z"/>
</g>
</svg>
